<svg width="22" height="22" viewBox="0 0 22 22" fill="none" xmlns="http://www.w3.org/2000/svg">
<g clip-path="url(#clip0_111_304)">
<path d="M16.9939 9.23096V7.07509C16.9939 6.12256 16.2217 5.35038 15.2692 5.35038H6.64567C5.69314 5.35038 4.92096 6.12256 4.92096 7.07509V9.23096M14.4068 5.35038V4.05686C14.4068 3.10433 13.6347 2.33215 12.6821 2.33215H9.23272C8.28019 2.33215 7.50802 3.10433 7.50802 4.05686V5.35038M3.19626 19.5792H18.7186C19.6711 19.5792 20.4433 18.807 20.4433 17.8545V10.9557C20.4433 10.0031 19.6711 9.23096 18.7186 9.23096H3.19626C2.24373 9.23096 1.47156 10.0031 1.47156 10.9557V17.8545C1.47156 18.807 2.24373 19.5792 3.19626 19.5792Z" stroke="#606060" stroke-width="1.63393"/>
</g>
<defs>
<clipPath id="clip0_111_304">
<rect width="20.6964" height="20.6964" fill="white" transform="translate(0.609375 0.607422)"/>
</clipPath>
</defs>
</svg>
