<svg width="19" height="19" viewBox="0 0 19 19" fill="none" xmlns="http://www.w3.org/2000/svg">
<path d="M11.7366 4.35864L11.0441 4.75922C11.1871 5.00641 11.451 5.15864 11.7366 5.15864V4.35864ZM1.61605 10.253C1.75577 10.6721 2.20883 10.8987 2.62798 10.7589C3.04714 10.6192 3.27366 10.1662 3.13395 9.74702L1.61605 10.253ZM15.5345 9.64223C15.3369 10.0374 15.497 10.518 15.8922 10.7155C16.2874 10.9131 16.768 10.753 16.9655 10.3578L15.5345 9.64223ZM6.61639 14.1715C6.2976 13.8655 5.79117 13.876 5.48526 14.1948C5.17935 14.5136 5.1898 15.02 5.50859 15.3259L6.61639 14.1715ZM9.12499 17.6874L8.57109 18.2646C8.88063 18.5617 9.36935 18.5617 9.67889 18.2646L9.12499 17.6874ZM12.7414 15.3259C13.0602 15.02 13.0706 14.5136 12.7647 14.1948C12.4588 13.876 11.9524 13.8655 11.6336 14.1715L12.7414 15.3259ZM8.325 16.9145C8.325 17.3563 8.68317 17.7145 9.125 17.7145C9.56683 17.7145 9.925 17.3563 9.925 16.9145H8.325ZM9.925 8.59375C9.925 8.15192 9.56683 7.79375 9.125 7.79375C8.68317 7.79375 8.325 8.15192 8.325 8.59375H9.925ZM7.21727 2.55C8.85128 2.55 10.2791 3.4368 11.0441 4.75922L12.4291 3.95806C11.3898 2.16158 9.44552 0.95 7.21727 0.95V2.55ZM2.8 6.96727C2.8 4.77347 4.8042 2.55 7.21727 2.55V0.95C3.86751 0.95 1.2 3.9438 1.2 6.96727H2.8ZM3.13395 9.74702C2.80506 8.76036 2.8 7.75734 2.8 6.96727H1.2C1.2 7.74266 1.19494 8.98964 1.61605 10.253L3.13395 9.74702ZM15.825 7.75C15.825 8.52015 15.8133 9.0845 15.5345 9.64223L16.9655 10.3578C17.4367 9.4155 17.425 8.47985 17.425 7.75H15.825ZM12.4345 5.15864C13.3353 5.15864 14.2083 5.47718 14.8446 5.97923C15.4818 6.48201 15.825 7.11677 15.825 7.75H17.425C17.425 6.50823 16.7535 5.44731 15.8357 4.72316C14.917 3.99828 13.6948 3.55864 12.4345 3.55864V5.15864ZM11.7366 5.15864H12.4345V3.55864H11.7366V5.15864ZM5.50859 15.3259L8.57109 18.2646L9.67889 17.1102L6.61639 14.1715L5.50859 15.3259ZM9.67889 18.2646L12.7414 15.3259L11.6336 14.1715L8.57109 17.1102L9.67889 18.2646ZM9.925 16.9145V8.59375H8.325V16.9145H9.925Z" fill="#0161F2"/>
</svg>
