<svg width="21" height="21" viewBox="0 0 21 21" fill="none" xmlns="http://www.w3.org/2000/svg">
<g clip-path="url(#clip0_111_288)">
<path d="M9.16896 0.152344C4.14349 0.152344 0.0546875 4.24114 0.0546875 9.26661C0.0546875 14.2924 4.14349 18.3809 9.16896 18.3809C14.1947 18.3809 18.2832 14.2924 18.2832 9.26661C18.2832 4.24114 14.1947 0.152344 9.16896 0.152344ZM9.16896 16.6983C5.07119 16.6983 1.73732 13.3644 1.73732 9.26666C1.73732 5.16888 5.07119 1.83498 9.16896 1.83498C13.2667 1.83498 16.6006 5.16884 16.6006 9.26661C16.6006 13.3644 13.2667 16.6983 9.16896 16.6983Z" fill="#606060"/>
<path d="M20.5019 19.4138L15.6783 14.5903C15.3497 14.2616 14.8174 14.2616 14.4887 14.5903C14.16 14.9187 14.16 15.4515 14.4887 15.7799L19.3123 20.6035C19.4766 20.7678 19.6917 20.85 19.9071 20.85C20.1222 20.85 20.3375 20.7678 20.5019 20.6035C20.8306 20.2751 20.8306 19.7422 20.5019 19.4138Z" fill="#606060"/>
</g>
<defs>
<clipPath id="clip0_111_288">
<rect width="20.6964" height="20.6964" fill="white" transform="translate(0.0546875 0.152344)"/>
</clipPath>
</defs>
</svg>
